<?xml version="1.0" encoding="utf-8"?>
<!-- Generator: Adobe Illustrator 27.5.0, SVG Export Plug-In . SVG Version: 6.00 Build 0)  -->
<svg version="1.1" xmlns="http://www.w3.org/2000/svg" xmlns:xlink="http://www.w3.org/1999/xlink" x="0px" y="0px"
	 viewBox="0 0 500 500" style="enable-background:new 0 0 500 500;" xml:space="preserve">
<g id="Background_Complete">
	<g>
		<rect x="416.779" y="398.494" style="fill:#EBEBEB;" width="33.122" height="0.25"/>
		<rect x="322.527" y="401.208" style="fill:#EBEBEB;" width="8.693" height="0.25"/>
		<rect x="396.586" y="389.208" style="fill:#EBEBEB;" width="19.192" height="0.25"/>
		<rect x="52.459" y="390.888" style="fill:#EBEBEB;" width="43.193" height="0.25"/>
		<rect x="104.556" y="390.888" style="fill:#EBEBEB;" width="6.333" height="0.25"/>
		<rect x="131.471" y="395.111" style="fill:#EBEBEB;" width="93.676" height="0.25"/>
		<path style="fill:#EBEBEB;" d="M237.014,337.8H43.915c-3.147,0-5.708-2.561-5.708-5.708V60.66c0-3.147,2.561-5.708,5.708-5.708
			h193.099c3.146,0,5.707,2.561,5.707,5.708v271.432C242.721,335.239,240.16,337.8,237.014,337.8z M43.915,55.203
			c-3.01,0-5.458,2.448-5.458,5.458v271.432c0,3.01,2.448,5.458,5.458,5.458h193.099c3.009,0,5.457-2.448,5.457-5.458V60.66
			c0-3.009-2.448-5.458-5.457-5.458H43.915z"/>
		<path style="fill:#EBEBEB;" d="M453.31,337.8H260.212c-3.147,0-5.707-2.561-5.707-5.708V60.66c0-3.147,2.561-5.708,5.707-5.708
			H453.31c3.148,0,5.708,2.561,5.708,5.708v271.432C459.019,335.239,456.458,337.8,453.31,337.8z M260.212,55.203
			c-3.009,0-5.457,2.448-5.457,5.458v271.432c0,3.01,2.448,5.458,5.457,5.458H453.31c3.01,0,5.458-2.448,5.458-5.458V60.66
			c0-3.009-2.448-5.458-5.458-5.458H260.212z"/>
		<rect y="382.398" style="fill:#EBEBEB;" width="500" height="0.25"/>
	</g>
	<g>
		<g>
			<rect x="82.062" y="293.457" style="fill:#EBEBEB;" width="108.582" height="40.75"/>
			<rect x="82.062" y="334.207" style="fill:#EBEBEB;" width="108.582" height="40.75"/>
			<g>
				<polygon style="fill:#F0F0F0;" points="123.324,334.207 136.834,293.457 116.042,293.457 102.532,334.207 				"/>
				<polygon style="fill:#F0F0F0;" points="146.896,293.457 142.329,293.457 128.819,334.207 133.387,334.207 				"/>
			</g>
			<g>
				<polygon style="fill:#F0F0F0;" points="109.814,374.958 123.324,334.207 102.532,334.207 89.022,374.958 				"/>
				<polygon style="fill:#F0F0F0;" points="133.387,334.207 128.819,334.207 115.31,374.958 119.877,374.958 				"/>
			</g>
			
				<rect x="134.292" y="243.372" transform="matrix(-1.836970e-16 1 -1 -1.836970e-16 434.0157 161.3094)" style="fill:#E0E0E0;" width="4.123" height="108.582"/>
			
				<rect x="134.292" y="283.804" transform="matrix(-1.836970e-16 1 -1 -1.836970e-16 474.4479 201.7417)" style="fill:#E0E0E0;" width="4.123" height="108.582"/>
			<g>
				<path style="fill:#E0E0E0;" d="M139.131,319.048c0.899,0,1.629-0.793,1.629-1.771c0-0.978-0.729-1.771-1.629-1.771
					c-0.456,0-5.099,0-5.555,0c-0.9,0-1.629,0.793-1.629,1.771c0,0.978,0.729,1.771,1.629,1.771
					C134.068,319.048,138.638,319.048,139.131,319.048z"/>
				<path style="fill:#F5F5F5;" d="M139.131,318.424c0.899,0,1.629-0.793,1.629-1.771c0-0.978-0.729-1.771-1.629-1.771
					c-0.456,0-5.099,0-5.555,0c-0.9,0-1.629,0.793-1.629,1.771c0,0.978,0.729,1.771,1.629,1.771
					C134.068,318.424,138.638,318.424,139.131,318.424z"/>
			</g>
			<g>
				<path style="fill:#E0E0E0;" d="M139.131,356.665c0.899,0,1.629-0.793,1.629-1.771c0-0.978-0.729-1.771-1.629-1.771
					c-0.456,0-5.099,0-5.555,0c-0.9,0-1.629,0.793-1.629,1.771c0,0.978,0.729,1.771,1.629,1.771
					C134.068,356.665,138.638,356.665,139.131,356.665z"/>
				<path style="fill:#F5F5F5;" d="M139.131,356.041c0.899,0,1.629-0.793,1.629-1.771c0-0.978-0.729-1.771-1.629-1.771
					c-0.456,0-5.099,0-5.555,0c-0.9,0-1.629,0.793-1.629,1.771c0,0.978,0.729,1.771,1.629,1.771
					C134.068,356.041,138.638,356.041,139.131,356.041z"/>
			</g>
			<path style="fill:#F5F5F5;" d="M80.166,291.63v85.108h1.896h1.896h104.79h1.896h1.896V291.63H80.166z M188.748,372.615H83.958
				v-36.254h104.79V372.615z M188.748,332.239H83.958v-36.254h104.79V332.239z"/>
			<g>
				<rect x="194.436" y="293.457" style="fill:#EBEBEB;" width="108.582" height="40.75"/>
				<rect x="194.436" y="334.207" style="fill:#EBEBEB;" width="108.582" height="40.75"/>
				<g>
					<polygon style="fill:#F0F0F0;" points="278.623,334.207 292.133,293.457 271.341,293.457 257.831,334.207 					"/>
					<polygon style="fill:#F0F0F0;" points="302.195,293.457 297.628,293.457 284.118,334.207 288.685,334.207 					"/>
				</g>
				<g>
					<polygon style="fill:#F0F0F0;" points="265.113,374.958 278.623,334.207 257.831,334.207 244.321,374.958 					"/>
					<polygon style="fill:#F0F0F0;" points="288.686,334.207 284.118,334.207 270.609,374.958 275.176,374.958 					"/>
				</g>
				
					<rect x="246.666" y="243.371" transform="matrix(-1.836970e-16 1 -1 -1.836970e-16 546.3895 48.9355)" style="fill:#E0E0E0;" width="4.123" height="108.582"/>
				
					<rect x="246.666" y="283.804" transform="matrix(-1.836970e-16 1 -1 -1.836970e-16 586.8218 89.3678)" style="fill:#E0E0E0;" width="4.123" height="108.582"/>
				<g>
					<path style="fill:#E0E0E0;" d="M251.505,319.048c0.899,0,1.628-0.793,1.628-1.771c0-0.978-0.729-1.771-1.628-1.771
						c-0.456,0-5.099,0-5.555,0c-0.899,0-1.628,0.793-1.628,1.771c0,0.978,0.729,1.771,1.628,1.771
						C246.442,319.048,251.012,319.048,251.505,319.048z"/>
					<path style="fill:#F5F5F5;" d="M251.505,318.424c0.899,0,1.628-0.793,1.628-1.771c0-0.978-0.729-1.771-1.628-1.771
						c-0.456,0-5.099,0-5.555,0c-0.899,0-1.628,0.793-1.628,1.771c0,0.978,0.729,1.771,1.628,1.771
						C246.442,318.424,251.012,318.424,251.505,318.424z"/>
				</g>
				<g>
					<path style="fill:#E0E0E0;" d="M251.505,356.665c0.899,0,1.628-0.793,1.628-1.771c0-0.978-0.729-1.771-1.628-1.771
						c-0.456,0-5.099,0-5.555,0c-0.899,0-1.628,0.793-1.628,1.771c0,0.978,0.729,1.771,1.628,1.771
						C246.442,356.665,251.012,356.665,251.505,356.665z"/>
					<path style="fill:#F5F5F5;" d="M251.505,356.041c0.899,0,1.628-0.793,1.628-1.771c0-0.978-0.729-1.771-1.628-1.771
						c-0.456,0-5.099,0-5.555,0c-0.899,0-1.628,0.793-1.628,1.771c0,0.978,0.729,1.771,1.628,1.771
						C246.442,356.041,251.012,356.041,251.505,356.041z"/>
				</g>
				<path style="fill:#F5F5F5;" d="M192.54,291.63v85.108h1.896h1.896h104.79h1.896h1.896V291.63H192.54z M301.122,372.615h-104.79
					v-36.254h104.79V372.615z M301.122,332.239h-104.79v-36.254h104.79V332.239z"/>
			</g>
			<g>
				<rect x="306.809" y="293.457" style="fill:#EBEBEB;" width="108.582" height="40.75"/>
				<rect x="306.809" y="334.207" style="fill:#EBEBEB;" width="108.582" height="40.75"/>
				<g>
					<polygon style="fill:#F0F0F0;" points="375.569,334.207 389.078,293.457 368.286,293.457 354.776,334.207 					"/>
					<polygon style="fill:#F0F0F0;" points="399.141,293.457 394.574,293.457 381.064,334.207 385.631,334.207 					"/>
				</g>
				<g>
					<polygon style="fill:#F0F0F0;" points="362.059,374.958 375.569,334.207 354.776,334.207 341.267,374.958 					"/>
					<polygon style="fill:#F0F0F0;" points="385.631,334.207 381.064,334.207 367.554,374.958 372.121,374.958 					"/>
				</g>
				
					<rect x="359.039" y="243.372" transform="matrix(-1.836970e-16 1 -1 -1.836970e-16 658.7626 -63.4376)" style="fill:#E0E0E0;" width="4.123" height="108.582"/>
				
					<rect x="359.039" y="283.804" transform="matrix(-1.836970e-16 1 -1 -1.836970e-16 699.1949 -23.0053)" style="fill:#E0E0E0;" width="4.123" height="108.582"/>
				<g>
					<path style="fill:#E0E0E0;" d="M363.878,319.048c0.899,0,1.629-0.793,1.629-1.771c0-0.978-0.729-1.771-1.629-1.771
						c-0.456,0-5.099,0-5.555,0c-0.899,0-1.629,0.793-1.629,1.771c0,0.978,0.729,1.771,1.629,1.771
						C358.815,319.048,363.385,319.048,363.878,319.048z"/>
					<path style="fill:#F5F5F5;" d="M363.878,318.424c0.899,0,1.629-0.793,1.629-1.771c0-0.978-0.729-1.771-1.629-1.771
						c-0.456,0-5.099,0-5.555,0c-0.899,0-1.629,0.793-1.629,1.771c0,0.978,0.729,1.771,1.629,1.771
						C358.815,318.424,363.385,318.424,363.878,318.424z"/>
				</g>
				<g>
					<path style="fill:#E0E0E0;" d="M363.878,356.665c0.899,0,1.629-0.793,1.629-1.771c0-0.978-0.729-1.771-1.629-1.771
						c-0.456,0-5.099,0-5.555,0c-0.899,0-1.629,0.793-1.629,1.771c0,0.978,0.729,1.771,1.629,1.771
						C358.815,356.665,363.385,356.665,363.878,356.665z"/>
					<path style="fill:#F5F5F5;" d="M363.878,356.041c0.899,0,1.629-0.793,1.629-1.771c0-0.978-0.729-1.771-1.629-1.771
						c-0.456,0-5.099,0-5.555,0c-0.899,0-1.629,0.793-1.629,1.771c0,0.978,0.729,1.771,1.629,1.771
						C358.815,356.041,363.385,356.041,363.878,356.041z"/>
				</g>
				<path style="fill:#F5F5F5;" d="M304.913,291.63v85.108h1.896h1.896h104.79h1.896h1.896V291.63H304.913z M413.495,372.615
					h-104.79v-36.254h104.79V372.615z M413.495,332.239h-104.79v-36.254h104.79V332.239z"/>
			</g>
		</g>
		<polygon style="fill:#E0E0E0;" points="406.423,382.87 91.031,382.87 89.389,376.738 408.064,376.738 		"/>
	</g>
	<g>
		<g>
			
				<rect x="336.813" y="197.625" transform="matrix(0.0052 -1 1 0.0052 131.6151 609.5067)" style="fill:#E0E0E0;" width="70.701" height="81.949"/>
			
				<rect x="331.409" y="190.022" transform="matrix(-1 -0.0052 0.0052 -1 743.7308 395.2219)" style="fill:#E6E6E6;" width="81.949" height="13.228"/>
			<polygon style="fill:#F5F5F5;" points="328.615,271.742 410.563,272.172 413.323,203.465 331.375,203.035 			"/>
			<polygon style="fill:#EBEBEB;" points="349.598,220.013 390.164,220.225 390.65,208.133 350.084,207.921 			"/>
			<polygon style="fill:#E0E0E0;" points="396.366,235.88 407.2,235.937 407.635,225.104 396.801,225.048 			"/>
			<polygon style="fill:#E0E0E0;" points="380.996,235.799 391.83,235.856 392.266,225.024 381.431,224.967 			"/>
			<g>
				<polygon style="fill:#E0E0E0;" points="395.779,250.491 406.613,250.548 407.048,239.716 396.214,239.659 				"/>
			</g>
			<g>
				<polygon style="fill:#EBEBEB;" points="395.192,265.103 406.026,265.159 406.461,254.327 395.627,254.27 				"/>
			</g>
			<polygon style="fill:#E0E0E0;" points="380.409,250.411 391.243,250.467 391.679,239.635 380.844,239.578 			"/>
			<polygon style="fill:#E0E0E0;" points="365.039,250.33 375.874,250.387 376.309,239.554 365.474,239.498 			"/>
			<polygon style="fill:#E0E0E0;" points="349.669,250.249 360.504,250.306 360.939,239.474 350.105,239.417 			"/>
			<polygon style="fill:#E0E0E0;" points="334.299,250.169 345.134,250.226 345.569,239.393 334.735,239.336 			"/>
			<polygon style="fill:#EBEBEB;" points="379.822,265.022 390.656,265.079 391.092,254.246 380.257,254.189 			"/>
			<polygon style="fill:#EBEBEB;" points="364.452,264.941 375.287,264.998 375.722,254.166 364.887,254.109 			"/>
			<polygon style="fill:#E0E0E0;" points="349.082,264.861 359.917,264.918 360.352,254.085 349.517,254.028 			"/>
			<polygon style="fill:none;" points="365.626,235.719 376.461,235.776 376.896,224.943 366.061,224.886 			"/>
			<polygon style="fill:#EBEBEB;" points="365.626,235.719 376.461,235.776 376.896,224.943 366.061,224.886 			"/>
			<polygon style="fill:none;" points="350.256,235.638 361.091,235.695 361.526,224.863 350.691,224.806 			"/>
			<polygon style="fill:#EBEBEB;" points="350.256,235.638 361.091,235.695 361.526,224.863 350.691,224.806 			"/>
			<polygon style="fill:none;" points="334.887,235.558 345.721,235.615 346.156,224.782 335.322,224.725 			"/>
			<polygon style="fill:#EBEBEB;" points="334.887,235.558 345.721,235.615 346.156,224.782 335.322,224.725 			"/>
			<polygon style="fill:#E0E0E0;" points="333.713,264.78 344.547,264.837 344.982,254.005 334.148,253.948 			"/>
		</g>
		<path style="fill:#E6E6E6;" d="M372.164,186.416c-2.614,0-4.732,2.119-4.732,4.732c0,2.614,2.119,4.732,4.732,4.732
			c2.613,0,4.732-2.119,4.732-4.732C376.896,188.534,374.777,186.416,372.164,186.416z M372.164,194.741
			c-1.985,0-3.593-1.609-3.593-3.593c0-1.984,1.609-3.593,3.593-3.593c1.984,0,3.593,1.609,3.593,3.593
			C375.757,193.132,374.148,194.741,372.164,194.741z"/>
	</g>
</g>
<g id="Background_Simple" style="display:none;">
	<g style="display:inline;">
		<path style="fill:#407BFF;" d="M94.978,134.993c9.812-53.039,178.477-90.547,208.976-44.954
			c14.69,21.96-29.873,80.636-15.579,102.855c18.494,28.747,119.007,5.107,129.846,37.422
			c26.529,79.091-243.342,202.052-294.864,136.126c-23.218-29.71,74.131-93.004,68.617-130.04
			C186.841,201.926,88.7,168.931,94.978,134.993z"/>
		<path style="opacity:0.9;fill:#FFFFFF;" d="M94.978,134.993c9.812-53.039,178.477-90.547,208.976-44.954
			c14.69,21.96-29.873,80.636-15.579,102.855c18.494,28.747,119.007,5.107,129.846,37.422
			c26.529,79.091-243.342,202.052-294.864,136.126c-23.218-29.71,74.131-93.004,68.617-130.04
			C186.841,201.926,88.7,168.931,94.978,134.993z"/>
	</g>
</g>
<g id="Shadow">
	<ellipse id="_x3C_Path_x3E__1_" style="fill:#F5F5F5;" cx="250" cy="412.391" rx="193.889" ry="11.323"/>
</g>
<g id="Chart_4">
	<g>
		<path style="fill:#407BFF;" d="M398.957,146.255l-20.591-4.341l19.006-7.058l0.259-4.944c-4.672-6.976-14.496-11.739-26.11-11.739
			c-16.654,0-30.667,9.787-31.3,21.86c-0.018,0.348-0.022,0.695-0.018,1.039c-0.04,0.344-0.223,3.557-0.241,3.905
			c-0.633,12.073,12.355,21.86,29.009,21.86c13.671,0,25.557-6.598,29.728-15.639L398.957,146.255z"/>
		<path style="opacity:0.7;fill:#FFFFFF;" d="M369.448,140.034l28.183-10.122c-4.672-6.976-14.496-11.739-26.11-11.739
			c-16.654,0-30.667,9.787-31.3,21.86c-0.633,12.073,12.355,21.861,29.009,21.861c13.671,0,25.557-6.598,29.727-15.639
			L369.448,140.034z"/>
		<g>
			<path style="fill:#407BFF;" d="M387.695,142.222l28.582,6.221c0.91-1.972,1.459-4.059,1.572-6.221
				c0.032-0.609,0.017-1.208-0.02-1.804c0.105-0.616,0.179-1.238,0.212-1.868c0.191-3.654-0.871-7.095-2.898-10.122l-27.256,10.122
				L387.695,142.222z"/>
			<path style="opacity:0.3;fill:#FFFFFF;" d="M416.469,144.771c0.91-1.972,1.459-4.059,1.572-6.221
				c0.191-3.654-0.871-7.095-2.898-10.122l-27.256,10.122L416.469,144.771z"/>
		</g>
	</g>
</g>
<g id="Chart_3">
	<g>
		<g>
			<g>
				<path style="fill:#407BFF;" d="M286.24,229.171v-1.458h-11.229v-11.32h-1.458v11.32h-10.776v-11.32h-1.458v11.32h-10.591v-11.32
					h-1.457v11.32h-10.5v-11.32h-1.457v11.32h-10.776v-11.32h-1.458v11.32h-11.136v1.458h11.136v10.592h-11.136v1.458h11.136v10.591
					h-11.136v1.457h11.136v11.321h1.458v-11.321h10.776v11.321h1.457v-11.321h10.5v11.321h1.457v-11.321h10.591v11.321h1.458
					v-11.321h10.776v11.321h1.458v-11.321h11.229v-1.457h-11.229V241.22h11.229v-1.458h-11.229v-10.592H286.24z M261.32,229.171
					v10.592h-10.591v-10.592H261.32z M249.271,229.171v10.592h-10.5v-10.592H249.271z M226.538,229.171h10.776v10.592h-10.776
					V229.171z M226.538,251.812V241.22h10.776v10.591H226.538z M238.771,251.812V241.22h10.5v10.591H238.771z M250.729,251.812
					V241.22h10.591v10.591H250.729z M273.554,251.812h-10.776V241.22h10.776V251.812z M273.554,239.763h-10.776v-10.592h10.776
					V239.763z"/>
				<path style="opacity:0.7;fill:#FFFFFF;" d="M286.24,229.171v-1.458h-11.229v-11.32h-1.458v11.32h-10.776v-11.32h-1.458v11.32
					h-10.591v-11.32h-1.457v11.32h-10.5v-11.32h-1.457v11.32h-10.776v-11.32h-1.458v11.32h-11.136v1.458h11.136v10.592h-11.136
					v1.458h11.136v10.591h-11.136v1.457h11.136v11.321h1.458v-11.321h10.776v11.321h1.457v-11.321h10.5v11.321h1.457v-11.321h10.591
					v11.321h1.458v-11.321h10.776v11.321h1.458v-11.321h11.229v-1.457h-11.229V241.22h11.229v-1.458h-11.229v-10.592H286.24z
					 M261.32,229.171v10.592h-10.591v-10.592H261.32z M249.271,229.171v10.592h-10.5v-10.592H249.271z M226.538,229.171h10.776
					v10.592h-10.776V229.171z M226.538,251.812V241.22h10.776v10.591H226.538z M238.771,251.812V241.22h10.5v10.591H238.771z
					 M250.729,251.812V241.22h10.591v10.591H250.729z M273.554,251.812h-10.776V241.22h10.776V251.812z M273.554,239.763h-10.776
					v-10.592h10.776V239.763z"/>
			</g>
			<g>
				<g>
					<path style="fill:#407BFF;" d="M282.565,266.048h-65.13c-2.83,0-5.132-2.302-5.132-5.132v-40.848
						c0-2.83,2.302-5.132,5.132-5.132h65.13c2.83,0,5.132,2.302,5.132,5.132v40.848
						C287.697,263.745,285.395,266.048,282.565,266.048z M217.435,217.851c-1.222,0-2.217,0.994-2.217,2.217v40.848
						c0,1.223,0.995,2.217,2.217,2.217h65.13c1.223,0,2.217-0.994,2.217-2.217v-40.848c0-1.223-0.995-2.217-2.217-2.217H217.435z"/>
				</g>
				<g style="opacity:0.8;">
					<path style="fill:#FFFFFF;" d="M282.565,266.048h-65.13c-2.83,0-5.132-2.302-5.132-5.132v-40.848
						c0-2.83,2.302-5.132,5.132-5.132h65.13c2.83,0,5.132,2.302,5.132,5.132v40.848
						C287.697,263.745,285.395,266.048,282.565,266.048z M217.435,217.851c-1.222,0-2.217,0.994-2.217,2.217v40.848
						c0,1.223,0.995,2.217,2.217,2.217h65.13c1.223,0,2.217-0.994,2.217-2.217v-40.848c0-1.223-0.995-2.217-2.217-2.217H217.435z"/>
				</g>
			</g>
		</g>
		<g>
			<g>
				<polygon style="fill:#407BFF;" points="275.137,226.018 268.617,226.018 262.096,232.538 249.834,238.67 236.987,238.67 
					224.336,251.321 215.218,251.321 215.218,253.508 225.241,253.508 237.893,240.856 250.35,240.856 263.391,234.335 
					269.522,228.204 275.653,228.204 284.782,223.64 284.782,221.195 				"/>
			</g>
			<g style="opacity:0.6;">
				<polygon style="fill:#FFFFFF;" points="275.137,226.018 268.617,226.018 262.096,232.538 249.834,238.67 236.987,238.67 
					224.336,251.321 215.218,251.321 215.218,253.508 225.241,253.508 237.893,240.856 250.35,240.856 263.391,234.335 
					269.522,228.204 275.653,228.204 284.782,223.64 284.782,221.195 				"/>
			</g>
		</g>
		<g>
			<polygon style="fill:#407BFF;" points="274.748,238.865 249.834,251.321 237.182,251.321 224.531,257.647 215.218,257.647 
				215.218,259.833 225.047,259.833 237.698,253.508 250.35,253.508 276.043,240.661 284.782,231.922 284.782,228.83 			"/>
		</g>
		<g>
			<g>
				<polygon style="fill:#407BFF;" points="275.137,232.343 262.486,238.67 249.834,238.67 237.182,244.995 215.218,244.995 
					215.218,247.181 237.698,247.181 250.35,240.856 263.002,240.856 275.654,234.53 284.782,234.53 284.782,232.343 				"/>
			</g>
			<g style="opacity:0.3;">
				<polygon style="fill:#FFFFFF;" points="275.137,232.343 262.486,238.67 249.834,238.67 237.182,244.995 215.218,244.995 
					215.218,247.181 237.698,247.181 250.35,240.856 263.002,240.856 275.654,234.53 284.782,234.53 284.782,232.343 				"/>
			</g>
		</g>
	</g>
</g>
<g id="Chart_2">
	<g>
		<g>
			<polygon style="fill:#407BFF;" points="220.518,138.658 212.464,138.658 212.367,160.502 220.421,160.502 			"/>
			<polygon style="opacity:0.6;fill:#FFFFFF;" points="220.518,138.658 212.464,138.658 212.367,160.502 220.421,160.502 			"/>
			<g>
				<rect x="279.482" y="100.91" style="fill:#407BFF;" width="8.054" height="59.591"/>
			</g>
			<g style="opacity:0.1;">
				<rect x="279.482" y="100.91" style="fill:#FFFFFF;" width="8.054" height="59.591"/>
			</g>
			<g>
				<polygon style="fill:#407BFF;" points="234.228,138.16 226.174,138.16 225.79,160.502 233.844,160.502 				"/>
				<polygon style="opacity:0.7;fill:#FFFFFF;" points="234.228,138.16 226.174,138.16 225.79,160.502 233.844,160.502 				"/>
			</g>
			<g>
				<polygon style="fill:#407BFF;" points="274.162,113.942 266.108,113.942 266.059,160.502 274.112,160.502 				"/>
				<polygon style="opacity:0.3;fill:#FFFFFF;" points="274.162,113.942 266.108,113.942 266.059,160.502 274.112,160.502 				"/>
			</g>
			<polygon style="fill:#407BFF;" points="260.452,115.895 252.398,115.895 252.636,160.502 260.689,160.502 			"/>
			<polygon style="opacity:0.4;fill:#FFFFFF;" points="260.452,115.895 252.398,115.895 252.636,160.502 260.689,160.502 			"/>
			<g>
				<polygon style="fill:#407BFF;" points="246.809,116.814 238.755,116.814 239.213,160.502 247.266,160.502 				"/>
			</g>
			<g style="opacity:0.3;">
				<polygon style="fill:#FFFFFF;" points="246.809,116.814 238.755,116.814 239.213,160.502 247.266,160.502 				"/>
			</g>
		</g>
		<g>
			<g style="opacity:0.1;">
				<polygon points="212.545,140.212 226.362,153.693 240.135,126.147 250.457,115.826 262.848,128.218 285.424,105.642 
					287.633,107.851 287.633,99.869 279.652,99.869 281.86,102.078 262.848,121.089 250.457,108.697 235.993,123.161 
					224.981,145.183 212.56,133.236 				"/>
			</g>
			<g>
				<polygon style="fill:#263238;" points="212.605,137.721 225.896,150.552 239.669,123.006 249.991,112.685 262.382,125.077 
					279.121,108.338 281.33,110.547 287.167,96.728 273.348,102.565 275.557,104.774 262.382,117.948 249.991,105.556 
					235.527,120.02 224.515,142.042 212.619,130.745 				"/>
			</g>
		</g>
	</g>
</g>
<g id="Chart_1">
	<g>
		<g>
			<path style="fill:#407BFF;" d="M105.989,168.827v6.04c3.895,0.311,7.44,1.855,10.247,4.244l4.27-4.27
				C116.593,171.373,111.546,169.158,105.989,168.827z"/>
			<path style="opacity:0.3;fill:#FFFFFF;" d="M105.989,168.827v6.04c3.895,0.311,7.44,1.855,10.247,4.244l4.27-4.27
				C116.593,171.373,111.546,169.158,105.989,168.827z"/>
		</g>
		<g>
			<path style="fill:#407BFF;" d="M103.074,210.887c-8.818-0.704-15.848-7.734-16.553-16.553h-6.04
				c0.725,12.147,10.446,21.868,22.593,22.593V210.887z"/>
			<path style="opacity:0.7;fill:#FFFFFF;" d="M103.074,210.887c-8.818-0.704-15.848-7.734-16.553-16.553h-6.04
				c0.725,12.147,10.446,21.868,22.593,22.593V210.887z"/>
		</g>
		<g>
			<path style="fill:#407BFF;" d="M86.521,191.419c0.705-8.818,7.735-15.848,16.553-16.552v-6.04
				c-12.147,0.725-21.867,10.446-22.592,22.593H86.521z"/>
			<path style="opacity:0.2;" d="M86.521,191.419c0.705-8.818,7.735-15.848,16.553-16.552v-6.04
				c-12.147,0.725-21.867,10.446-22.592,22.593H86.521z"/>
		</g>
		<path style="fill:#407BFF;" d="M122.568,176.902l-4.27,4.27c2.685,3.154,4.308,7.239,4.308,11.705
			c0,9.491-7.317,17.267-16.616,18.01v6.04c12.63-0.754,22.641-11.231,22.641-24.051
			C128.63,186.747,126.337,181.155,122.568,176.902z"/>
	</g>
</g>
<g id="Briefcase">
	<g>
		<g>
			<path style="fill:#263238;" d="M264.388,372.043h-4c0-2.234-1.281-3.792-2.431-3.792h-16.088c-1.15,0-2.431,1.558-2.431,3.792h-4
				c0-4.297,2.885-7.792,6.431-7.792h16.088C261.503,364.251,264.388,367.746,264.388,372.043z"/>
		</g>
		<g>
			<g>
				<path style="fill:#263238;" d="M281.413,416.775l-62.563,0.286c-3.085,0.014-5.597-2.475-5.611-5.56l-0.171-37.308
					c-0.008-1.79,1.437-3.249,3.227-3.257l67.25-0.308c1.79-0.008,3.249,1.437,3.257,3.227l0.171,37.308
					C286.987,414.249,284.497,416.761,281.413,416.775z"/>
				<path style="opacity:0.2;fill:#FFFFFF;" d="M286.971,411.16c0.02,3.09-2.47,5.6-5.56,5.62l-55.52,0.28
					c-3.08,0.02-5.59-2.47-5.61-5.56l-0.13-29.2h1.92c-0.75-1.1-1.31-2.37-1.63-3.75c-0.46-2.05-1.08-4.05-2.04-5.91l-0.44-0.84
					c0.58-0.53,1.34-0.86,2.18-0.86l63.4-0.31c1.79-0.01,3.25,1.44,3.26,3.23L286.971,411.16z"/>
				<g>
					<g>
						<polygon style="fill:#263238;" points="255.848,416.655 254.203,416.644 254.472,385.183 256.116,385.194 						"/>
					</g>
				</g>
				<path style="opacity:0.2;" d="M283.014,370.546l-66.269,0.303c-2.061,0.01-3.725,1.511-3.717,3.352l0.003,5.049
					c0.024,5.189,4.75,9.373,10.556,9.346l52.708-0.241c5.806-0.027,10.494-4.254,10.47-9.443l-0.004-5.049
					C286.753,372.023,285.075,370.537,283.014,370.546z"/>
			</g>
		</g>
		<path style="fill:#263238;" d="M283.413,370.631l-59.907,0.274c-1.863,0.009-5.992,0.026-5.992,0.026l0.884,1.705
			c0.965,1.861,1.579,3.868,2.044,5.912c1.044,4.581,4.803,7.965,9.264,7.944l47.648-0.218c5.249-0.024,9.482-4.75,9.455-10.556
			l-0.006-1.37C286.794,372.286,285.276,370.622,283.413,370.631z"/>
		<path style="opacity:0.3;fill:#FFFFFF;" d="M283.413,370.631l-59.907,0.274c-1.863,0.009-5.992,0.026-5.992,0.026l0.884,1.705
			c0.965,1.861,1.579,3.868,2.044,5.912c1.044,4.581,4.803,7.965,9.264,7.944l47.648-0.218c5.249-0.024,9.482-4.75,9.455-10.556
			l-0.006-1.37C286.794,372.286,285.276,370.622,283.413,370.631z"/>
		<g>
			<g>
				<path style="fill:#FFFFFF;" d="M240.576,392.218l-3.153,0.014c-1.077,0.005-1.953-0.864-1.958-1.94l-0.034-7.481
					c-0.005-1.076,0.864-1.953,1.94-1.958l3.154-0.014c1.076-0.005,1.953,0.864,1.958,1.94l0.034,7.481
					C242.521,391.337,241.652,392.213,240.576,392.218z"/>
			</g>
		</g>
		<g>
			<g>
				<path style="fill:#FFFFFF;" d="M271.806,392.185l-3.153,0.014c-1.077,0.005-1.953-0.864-1.958-1.94l-0.034-7.481
					c-0.005-1.077,0.864-1.953,1.94-1.958l3.154-0.014c1.077-0.005,1.953,0.864,1.958,1.94l0.034,7.481
					C273.751,391.303,272.882,392.18,271.806,392.185z"/>
			</g>
		</g>
		<path style="opacity:0.2;" d="M222.071,382.3h-8.95l-0.02-0.63v-1.41l-0.03-6.07c0-0.54,0.13-1.06,0.37-1.51
			c0.06-0.12,0.14-0.24,0.22-0.36c0.45-0.59,1.1-1.04,1.87-1.28c0.24-0.07,0.5-0.1,0.76-0.1l1.22-0.01l0.45,0.87l0.44,0.84
			c0.96,1.86,1.58,3.86,2.04,5.91C220.761,379.93,221.321,381.2,222.071,382.3z"/>
	</g>
</g>
<g id="Character_2">
	<g>
		<g>
			<g>
				<path style="fill:#FFC3BD;" d="M305.231,273.863l-3.974,67.868l1.142,55.11l6.772,0.711c0,0,5.195-19.681,6.37-39.449
					c0.271-4.561-0.811-9.867-0.308-13.468c0.441-3.157,1.694-5.13,3.452-12.274c2.127-8.64,4.348-20.226,3.782-29.239
					c0,0,9.257-9.67,6.892-22.841L305.231,273.863z"/>
			</g>
			<polygon style="fill:#FFC3BD;" points="301.886,407.487 306.999,407.277 308.918,399.113 310.303,391.547 302.775,390.182 
				302.298,399.339 			"/>
			<path style="fill:#263238;" d="M294.215,417.268c0.826-0.618,1.758-1.08,2.75-1.361l0,0c0,0,3.033-2.78,4.767-11.45l3.868-0.847
				c1.343-0.265,2.709,0.331,3.428,1.496c0.1,0.159,0.174,0.333,0.22,0.516c0.157,0.928,0.255,1.866,0.295,2.807
				c0.085,3.199-0.022,6.401-0.321,9.588l-0.692-0.006l-0.035-6.03c0.017-2.047-1.685,0.294-2.217,2.468
				c-0.532,2.174-1.579,4.493-6.065,4.419C295.007,418.779,292.841,418.491,294.215,417.268z"/>
			<path style="fill:#FFC3BD;" d="M302.534,401.361c0,0-0.967,3.956-2.442,8.327c-0.634,2.254-1.695,4.366-3.126,6.219
				c0,0,3.331,0.728,4.873-1.475c1.542-2.203,3.819-9.821,7.208-9.289c-0.244-0.575-0.553-1.12-0.922-1.625
				C307.543,402.701,302.534,401.361,302.534,401.361z"/>
		</g>
		<g>
			<g>
				<path style="fill:#FFC3BD;" d="M318.797,276.839l15.569,66.178l16.829,52.49l6.694-1.252c0,0-0.64-20.345-5.158-39.626
					c-1.042-4.448-3.595-9.224-4.14-12.82c-0.478-3.152,0.158-5.401-0.197-12.749c-0.429-8.888-1.608-20.625-4.724-29.102
					c0,0,6.11-11.91,0.084-23.858L318.797,276.839z"/>
			</g>
			<polygon style="fill:#FFC3BD;" points="353.742,405.856 358.583,404.195 358.091,395.823 357.258,388.177 349.653,389.018 
				351.811,397.93 			"/>
			<path style="fill:#263238;" d="M349.184,417.42c0.615-0.828,1.376-1.537,2.247-2.089l0,0c0,0,2.113-3.53,1.3-12.334l3.465-1.916
				c1.211-0.638,2.691-0.456,3.712,0.455c0.141,0.124,0.262,0.27,0.358,0.432c0.415,0.845,0.777,1.715,1.084,2.606
				c0.996,3.042,1.807,6.141,2.43,9.281l-0.665,0.192l-1.755-5.769c-0.568-1.967-1.531,0.763-1.42,2.998
				c0.111,2.235-0.23,4.757-4.551,5.967C350.374,418.642,348.215,418.984,349.184,417.42z"/>
			<path style="fill:#FFC3BD;" d="M352.614,399.799c0,0,0.203,4.067,0.037,8.678c0.036,2.341-0.378,4.668-1.22,6.853
				c0,0,3.4-0.253,4.249-2.805c0.849-2.551,0.856-10.503,4.256-10.96c-0.398-0.481-0.85-0.915-1.347-1.294
				C357.797,399.654,352.614,399.799,352.614,399.799z"/>
		</g>
		<g>
			<path style="fill:#FFC3BD;" d="M268.527,221.731l3.359,3.427c2.975,0.536,3.452,4.811,3.452,4.811
				c0.681,0.402,5.698,4.568,7.208,5.586l-2.879,3.295c-1.775-2.087-6.245-5.658-6.245-5.658s-7.582-3.428-8.926-4.82
				c-1.344-1.392,0-6.212,0-6.212L268.527,221.731z"/>
			<path style="fill:#407BFF;" d="M278.415,231.041c5.046,3.047,12.504,7.737,12.504,7.737s3.371-4.676,10.767-12.833
				c3.003-3.312,5.837-5.397,8.156-6.721v14.355c-3.476,3.554-14.399,14.334-19.032,14.334c-3.82,0-11.559-7.53-16.008-12.219
				L278.415,231.041z"/>
			<path style="opacity:0.4;" d="M302.093,240.939c2.148-4.45,4.988-13.58,4.988-13.58l1.957,3.589l-0.751,4.198
				C306.665,236.756,304.451,238.882,302.093,240.939z"/>
			<path style="fill:#263238;" d="M344.941,225.156c-0.475,6.789-1.834,20.759-5.626,38.961c0,0,13.542,18.997,8.84,60.936
				c0,0-10.58,4.315-46.469-0.905l4.568-60.249c0,0-1.523-38.933,2.61-43.283c3.661-3.854,19.616-8.903,31.829-2.895
				C343.49,219.098,345.159,222.046,344.941,225.156z"/>
			<path style="fill:#407BFF;" d="M328.004,262.812c0,0-10.658,1.849-18.162,0v4.568c0,0,5.578,0.804,18.162,0V262.812z"/>
			<path style="opacity:0.5;" d="M328.004,262.812c0,0-10.658,1.849-18.162,0v4.568c0,0,5.578,0.804,18.162,0V262.812z"/>
			<path style="fill:#FFFFFF;" d="M320.826,263.954c0,0,0.026-1.686-1.892-2.055c-1.299-0.251-4.903-0.174-4.957,2.599
				c-0.054,2.773-0.6,4.785,2.119,4.948c2.719,0.163,4.832,0.367,4.754-1.747l-4.918,0.024l0.056-4.126L320.826,263.954z"/>
			<path style="fill:#FFC3BD;" d="M334.214,201.005c-1.409,4.025-3.257,11.09-1.737,15.175c0.365,0.979,0.003,2.082-0.872,2.653
				c-3.067,2.214-8.067,4.01-11.828,3.605c-4.822-0.522-3.563-3.94-2.333-5.811c0.33-0.502,0.841-1.208,1.433-1.31
				c4.74-0.805,5.64-4.37,5.275-7.962L334.214,201.005z"/>
			<path style="opacity:0.2;enable-background:new    ;" d="M330.114,203.613l-5.963,3.727c0.075,0.88,0.075,1.765,0,2.646
				c2.042,0,4.86-1.312,5.963-3.391C330.815,205.327,330.606,203.844,330.114,203.613z"/>
			<path style="fill:#263238;" d="M326.172,184.714c-1.283,2.89-2.598,5.832-4.701,8.193c-2.103,2.361-5.161,4.092-8.311,3.817
				c1.548-1.105,3.239-2.451,3.396-4.346c0.126-1.517-0.789-2.903-1.179-4.375c-0.725-2.74,0.561-5.844,2.924-7.408
				c1.193-0.789,2.686-1.215,4.077-0.881c1.391,0.334,2.606,1.538,2.693,2.966C325.488,183.274,325.756,184.12,326.172,184.714z"/>
			<path style="fill:#FFC3BD;" d="M336.086,194.483c-1.737,6.201-2.445,9.913-6.313,12.447c-5.814,3.824-12.946-0.745-13.088-7.319
				c-0.127-5.963,2.743-15.071,9.428-16.241c4.768-0.86,9.331,2.307,10.191,7.075C336.547,191.79,336.473,193.172,336.086,194.483z"
				/>
			<path style="fill:#263238;" d="M321.621,179.784c-0.319,0.423-0.499,0.938-0.517,1.467c-0.064,1.906,1.494,3.728,3.386,3.963
				c0.712,0.088,1.644,0.114,1.854,0.8c0.111,0.363-0.061,0.743-0.13,1.116c-0.208,1.124,0.576,2.243,1.577,2.794
				c1.001,0.551,2.178,0.661,3.317,0.76c-0.694-0.733-0.514-2.097-0.346-3.092c0.168-0.996,0.548-1.952,0.644-2.957
				c0.184-1.922,0.777-4.485-0.842-5.535C328.945,178.05,323.841,176.833,321.621,179.784z"/>
			<path style="fill:#ED847E;" d="M322.283,193.654c-1.001,1.393-2.19,2.641-3.533,3.709c0.706,1.071,2.309,1.078,2.309,1.078
				L322.283,193.654z"/>
			<path style="fill:#263238;" d="M328.372,192.21c0.052,0.011,0.105,0.011,0.156,0c0.149-0.076,0.214-0.255,0.149-0.41
				c-0.401-0.903-1.21-1.56-2.176-1.766c-0.169-0.025-0.326,0.092-0.35,0.261c-0.025,0.169,0.092,0.326,0.261,0.35l0,0
				c0.763,0.171,1.398,0.698,1.707,1.416C328.172,192.15,328.268,192.207,328.372,192.21z"/>
			<path style="fill:#263238;" d="M318.607,189.287c0.093,0.049,0.204,0.045,0.293-0.009c0.663-0.403,1.478-0.467,2.196-0.173
				c0.151,0.077,0.336,0.018,0.413-0.133c0.077-0.151,0.018-0.336-0.133-0.413c-0.909-0.397-1.954-0.329-2.804,0.183
				c-0.144,0.079-0.197,0.261-0.117,0.405c0.001,0.003,0.003,0.005,0.004,0.008C318.492,189.215,318.544,189.262,318.607,189.287z"
				/>
			<path style="fill:#FFFFFF;" d="M332.245,214.164l-11.255,7.975l-1.034-7.193l-1.851,0.478c-0.433,0.101-0.767,0.442-0.861,0.876
				c-0.369,1.702-1.719,5.857-1.645,9.581c0,0,2.629-5.173,5.035-1.068c0,0,4.783-4.238,7.315,2.172c0,0,2.992-4.301,4.297-7.346
				c1.305-3.045,2.175-4.693,2.175-4.693L332.245,214.164z"/>
			<path style="fill:#407BFF;" d="M333.08,214.464c0,0-4.816,19.856-6.215,40.011c-1.399,20.155-1.689,26.245,6.286,25.376
				c7.975-0.87,14.5-1.885,13.34-4.785c-1.16-2.9-5.51-9.425-5.22-12.76c0.29-3.335,3.04-29.286,3.354-33.217
				C344.941,225.156,347.29,216.929,333.08,214.464z"/>
			<path style="opacity:0.3;" d="M326.865,254.475c0.124-1.782,0.276-3.563,0.448-5.331l14.841,4.392
				c-0.23,2.238-0.436,4.242-0.593,5.797l-9.903-2.733l0.109-0.747l-4.945-0.745C326.836,254.895,326.85,254.69,326.865,254.475z"/>
			<g>
				<path style="fill:#407BFF;" d="M319.088,215.148c0,0-6.526,12.284-6.961,32.766c-0.435,20.482,0.466,31.385-3.335,32.017
					c-3.801,0.632-4.64-1.965-4.64-1.965s1.124-11.129,1.124-13.848c0-2.719-1.194-19.138,0-30.886
					c1.194-11.747,0.002-11.015,1.975-12.332C309.223,219.582,313.76,216.224,319.088,215.148z"/>
			</g>
			<path style="opacity:0.4;" d="M342.394,251.209l-3.921-22.473c0,0,3.235,3.292,5.63,5.81
				C343.642,239.138,342.97,245.621,342.394,251.209z"/>
			<path style="fill:#FFC3BD;" d="M322.473,242.122c1.376,0.295,8.748,4.999,8.748,4.999s3.999,1.211,5.846,1.554l-1.958,4.495
				c-1.602-0.715-5.068-1.724-5.068-1.724s-2.949-0.098-3.932-0.295c0,0-2.85,0.786-4.521-0.295
				c-1.671-1.081-2.654-3.735-2.654-3.735S321.096,241.827,322.473,242.122z"/>
			<path style="fill:#407BFF;" d="M335.297,247.741c3.929,0.73,8.802,0.816,8.802,0.172c0-0.979-3.734-13.308-5.764-17.835
				c-1.297-2.893-5.329-10.114-0.885-12.649c2.365-1.349,9.768-0.406,13.248,14.928c3.48,15.334,1.883,20.885-1.489,23.278
				c-3.54,2.513-11.534-0.461-15.875-2.397L335.297,247.741z"/>
			<g>
				<path style="fill:#263238;" d="M326.121,193.75c-0.1,0.515-0.457,0.879-0.801,0.815c-0.343-0.064-0.529-0.536-0.422-1.058
					c0.107-0.522,0.458-0.879,0.794-0.815C326.029,192.756,326.221,193.228,326.121,193.75z"/>
				<path style="fill:#263238;" d="M320.267,192.599c-0.1,0.515-0.458,0.879-0.794,0.815c-0.336-0.064-0.529-0.536-0.429-1.058
					c0.1-0.522,0.458-0.879,0.794-0.815C320.174,191.605,320.374,192.077,320.267,192.599z"/>
				<path style="fill:#263238;" d="M319.98,191.598l-1.172-0.6C318.808,190.998,319.259,192.092,319.98,191.598z"/>
				<path style="fill:#263238;" d="M325.836,192.749l-1.173-0.6C324.663,192.149,325.113,193.243,325.836,192.749z"/>
			</g>
			<path style="fill:#263238;" d="M322.669,201.485c-0.365,0.042-0.733,0.051-1.1,0.027c-0.106-0.005-0.187-0.096-0.181-0.201
				c0-0.002,0-0.004,0.001-0.006c0.006-0.104,0.095-0.184,0.199-0.18c1.645,0.135,3.257-0.516,4.347-1.755
				c0.063-0.087,0.184-0.106,0.271-0.043c0.087,0.063,0.106,0.184,0.043,0.271C325.344,200.665,324.061,201.342,322.669,201.485z"/>
			<path style="fill:#263238;" d="M328.703,179.804c-1.399,4.12,3.222,15.467,3.773,16.759c0.551,1.293,0.796,2.802,0.24,4.093
				c0.221-0.686,1.143-0.903,1.825-0.67c-0.028,0.584-0.057,1.168-0.085,1.752c-1.186,1.35-1.882,3.375-1.693,5.162
				c3.656-1.016,6.473-3.326,9.311-5.846c0.874-0.777,1.763-1.57,2.364-2.572c0.602-1.003,0.884-2.266,0.459-3.356
				c-0.573,0.488-1.516,0.701-2.07,0.191c-0.554-0.509-0.786-1.287-0.841-2.037c-0.055-0.751,0.044-1.504,0.035-2.257
				c-0.035-2.874-1.778-6.662-4.346-7.951C334.957,181.706,328.703,179.804,328.703,179.804z"/>
			<path style="fill:#FFC3BD;" d="M337.89,201.005c-1.134,1.152-2.677,1.81-4.293,1.833c-2.146,0-2.653-2.05-1.58-3.779
				c0.961-1.55,3.242-3.428,5.165-2.609C339.105,197.27,339.269,199.566,337.89,201.005z"/>
		</g>
	</g>
</g>
<g id="Character_1">
	<g>
		<g>
			<g>
				
					<ellipse transform="matrix(0.7071 -0.7071 0.7071 0.7071 -18.7007 215.3237)" style="opacity:0.1;" cx="250.568" cy="130.236" rx="54.636" ry="54.636"/>
			</g>
			<g>
				<g>
					<path style="fill:#263238;" d="M202.351,221.044c-6.66,3.36-23.82-11.34-32.44-19.38c-2.74-2.54-2.54-6.94,0.4-9.23
						c2.48-1.93,6-1.63,8.14,0.67c4.84,5.21,13.11,13.32,16.49,11.84c3.46-1.52,2.23-15,2.23-15l2.05,0.54l5.26,1.39l1.23,0.33
						C205.711,192.204,208.811,217.794,202.351,221.044z"/>
				</g>
				<g>
					<g>
						<polygon style="fill:#7F3E3B;" points="226.357,383.534 233.445,399.286 241.124,396.017 234.032,379.066 						"/>
						<path style="fill:#407BFF;" d="M183.803,245.93c0,0,24.051,55.032,31.157,72.788c6.503,16.248,22.792,66.026,22.792,66.026
							l-10.039,4.649c0,0-16.322-30.405-20.735-40.92c-2.188-5.214-5.26-16.228-7.701-21.313
							c-6.265-13.048-23.583-36.176-30.069-49.101c-2.366-4.714-9.924-27.489-9.924-27.489L183.803,245.93z"/>
						<g>
							<path style="fill:#407BFF;" d="M242.162,396.082c-0.078,0.012-0.155-0.028-0.197-0.1c-0.041-0.073-0.035-0.166,0.016-0.231
								c0.089-0.116,2.124-2.731,3.496-2.85c0.254-0.026,0.51,0.056,0.711,0.227c0.253,0.179,0.374,0.508,0.304,0.821
								c-0.156,0.549-1.048,1.106-1.973,1.469C243.754,395.713,242.965,395.935,242.162,396.082z M242.643,395.603
								c1.45-0.358,3.322-1.106,3.484-1.764c0.027-0.084,0.033-0.216-0.181-0.402c-0.121-0.113-0.283-0.161-0.439-0.13
								c-0.121,0.01-0.24,0.038-0.354,0.085C244.192,393.952,243.341,394.701,242.643,395.603z"/>
							<path style="fill:#407BFF;" d="M242.065,396.108c-0.066-0.017-0.12-0.07-0.139-0.141c-0.025-0.105-0.587-2.346,0.066-3.557
								c0.185-0.355,0.498-0.611,0.867-0.709c0.504-0.138,0.749,0.067,0.843,0.278c0.476,0.84-0.702,3.28-1.442,4.054
								c-0.019,0.021-0.044,0.034-0.071,0.036C242.154,396.098,242.109,396.112,242.065,396.108z M242.867,392.107
								c-0.224,0.085-0.411,0.255-0.525,0.477c-0.312,0.909-0.356,1.902-0.124,2.846c0.716-0.95,1.41-2.769,1.173-3.296
								c-0.03-0.043-0.1-0.173-0.426-0.078L242.867,392.107L242.867,392.107z"/>
							<path style="fill:#263238;" d="M240.921,395.007l-8.125,3.185c-0.306,0.12-0.49,0.452-0.443,0.8l1.035,7.698
								c0.087,0.684,0.673,1.169,1.309,1.085c0.082-0.011,0.162-0.031,0.239-0.06c2.909-1.203,5.452-2.396,9.099-3.819
								c4.303-1.685,3.406-0.702,8.491-2.607c3.063-1.151,2.308-5.104,0.952-4.781c-6.196,1.516-7.486-0.168-10.569-1.556
								C242.26,394.708,241.552,394.728,240.921,395.007z"/>
						</g>
						<path style="opacity:0.2;" d="M186.979,306.621c-2.422-12.833-9.333-25.749-9.333-25.749l-5.03,3.34
							C176.562,290.871,181.93,298.879,186.979,306.621z"/>
						<polygon style="fill:#7F3E3B;" points="153.229,387.35 150.698,404.501 158.799,406.554 161.965,388.427 						"/>
						<path style="fill:#407BFF;" d="M179.798,249.352c0,0,1.199,67.063-2.279,89.325c-2.321,14.856-15.844,58.76-15.844,58.76
							l-11.199-3.122c0,0,2.772-34.795,4.863-46.267c0.611-3.35,2.375-9.932,2.775-13.321c1.366-11.581,1.054-35.178-0.499-46.773
							c-0.635-4.738-3.627-13.872-4.333-18.6c-0.615-4.116-1.125-16.61-1.125-16.61L179.798,249.352z"/>
						<g>
							<path style="fill:#407BFF;" d="M159.739,408.339c-0.071-0.039-0.113-0.119-0.108-0.204c0.006-0.085,0.061-0.155,0.138-0.177
								c0.136-0.038,3.224-0.879,4.416-0.12c0.223,0.138,0.389,0.362,0.461,0.626c0.111,0.302,0.033,0.643-0.195,0.851
								c-0.425,0.345-1.46,0.239-2.417-0.045C161.247,409.033,160.478,408.721,159.739,408.339z M160.394,408.253
								c1.385,0.615,3.329,1.178,3.818,0.749c0.068-0.051,0.145-0.154,0.069-0.437c-0.038-0.166-0.145-0.306-0.29-0.379
								c-0.105-0.068-0.218-0.119-0.337-0.152C162.561,407.886,161.455,407.96,160.394,408.253z"/>
							<path style="fill:#407BFF;" d="M159.645,408.299c-0.046-0.055-0.061-0.132-0.038-0.2c0.036-0.1,0.788-2.257,1.98-2.827
								c0.344-0.17,0.74-0.182,1.097-0.031c0.489,0.203,0.578,0.521,0.542,0.749c-0.064,0.974-2.353,2.207-3.381,2.37
								c-0.027,0.005-0.054,0-0.078-0.015C159.724,408.346,159.68,408.33,159.645,408.299z M162.471,405.573
								c-0.23-0.071-0.475-0.051-0.69,0.058c-0.749,0.538-1.322,1.312-1.644,2.218c1.102-0.32,2.659-1.354,2.749-1.926
								c-0.001-0.054,0.012-0.202-0.309-0.329L162.471,405.573L162.471,405.573z"/>
							<path style="fill:#263238;" d="M159.302,406.699l-8.401-2.495c-0.316-0.094-0.648,0.06-0.798,0.369l-3.32,6.852
								c-0.299,0.606-0.08,1.362,0.488,1.691c0.073,0.042,0.15,0.076,0.229,0.101c3.041,0.843,5.777,1.465,9.545,2.59
								c4.448,1.323,3.179,1.556,8.389,3.189c3.14,0.98,4.661-2.676,3.372-3.261c-5.912-2.639-6.06-4.801-7.842-7.841
								C160.563,407.292,159.971,406.867,159.302,406.699z"/>
						</g>
						<g>
							<polygon style="fill:#263238;" points="166.567,252.27 153.607,255.067 154.068,258.32 167.314,255.461 							"/>
							<polygon style="fill:#263238;" points="183.4,248.671 178.034,249.795 178.836,252.974 184.911,251.697 							"/>
							<polygon style="fill:#FFFFFF;" points="175.657,250.308 169.265,251.688 169.98,254.885 176.41,253.497 							"/>
						</g>
					</g>
					<path style="fill:#263238;" d="M148.422,165.031c0,0,5.364-2.781,4.638,3.986l-4.533-0.732L148.422,165.031z"/>
					<path style="fill:#7F3E3B;" d="M144.341,185.066c2.27,3.604,5.645,10.07,5.064,14.381c-0.14,1.034,0.459,2.026,1.441,2.389
						c3.49,1.474,7.406,1.61,10.993,0.383c4.599-1.577,3.981-4.121,2.363-5.669c-0.434-0.416-1.022-0.633-1.624-0.601
						c-4.813,0.268-6.552-3.358-6.992-6.935L144.341,185.066z"/>
					<path style="opacity:0.2;enable-background:new    ;" d="M148.928,186.696l6.656,2.305c0.122,0.873,0.319,1.734,0.587,2.575
						c-1.997,0.453-5.042-0.199-6.582-1.978C148.623,188.52,148.498,187.03,148.928,186.696z"/>
					<path style="fill:#7F3E3B;" d="M140.213,179.328c3.074,5.649,4.589,9.104,8.933,10.712c6.532,2.432,12.492-3.595,11.173-10.023
						c-1.199-5.83-6.025-14.057-12.821-13.713c-4.853,0.22-8.611,4.314-8.394,9.144C139.165,176.81,139.544,178.139,140.213,179.328
						z"/>
					<path style="fill:#263238;" d="M150.009,176.195c0.223,0.476,0.652,0.744,0.964,0.598c0.311-0.147,0.382-0.644,0.159-1.119
						c-0.223-0.476-0.651-0.737-0.962-0.59C149.858,175.23,149.787,175.726,150.009,176.195z"/>
					<path style="fill:#263238;" d="M155.074,173.266c0.222,0.468,0.651,0.737,0.962,0.59c0.311-0.147,0.382-0.644,0.16-1.112
						c-0.222-0.468-0.652-0.744-0.964-0.598C154.921,172.294,154.85,172.791,155.074,173.266z"/>
					<path style="fill:#630F0F;" d="M153.541,174.894c1.48,0.868,3.073,1.527,4.735,1.96c-0.216,1.263-1.684,1.917-1.684,1.917
						L153.541,174.894z"/>
					<path style="fill:#263238;" d="M148.31,175.636c-0.047,0.025-0.098,0.039-0.151,0.043c-0.164-0.033-0.275-0.187-0.254-0.353
						c0.142-0.979,0.745-1.832,1.62-2.296c0.156-0.07,0.338-0.001,0.408,0.155c0.069,0.156-0.001,0.339-0.157,0.408l0,0
						c-0.689,0.374-1.159,1.054-1.262,1.83C148.487,175.524,148.41,175.604,148.31,175.636z"/>
					<path style="fill:#263238;" d="M156.52,170.985c-0.083,0.063-0.194,0.077-0.291,0.038c-0.721-0.292-1.537-0.225-2.198,0.179
						c-0.136,0.1-0.329,0.071-0.43-0.066c-0.101-0.137-0.072-0.328,0.064-0.429c0.833-0.536,1.876-0.636,2.8-0.267
						c0.155,0.056,0.237,0.226,0.182,0.381c-0.001,0.003-0.002,0.006-0.003,0.008C156.622,170.895,156.578,170.949,156.52,170.985z"
						/>
					<path style="fill:#263238;" d="M134.961,211.202l16.996,43.046l31.845-8.317l-6.347-50.83
						c-0.453-2.785-3.399-4.415-6.016-3.329l-33.975,14.099C135.373,206.738,134.288,209.049,134.961,211.202z"/>
					<polygon style="fill:#407BFF;" points="155.104,201.835 156.78,199.61 159.841,199.323 161.038,202.604 161.263,205.003 
						162.991,206.686 171.436,234.248 169.696,239.137 164.311,236.414 158.868,208.76 158.892,206.033 155.217,203.035 					"/>
					<g>
						<polygon style="fill:#263238;" points="148.285,198.738 145.449,202.557 153.37,205.787 156.955,200.288 165.819,199.841 
							163.565,194.92 160.67,194.405 155.867,198.233 						"/>
						<polygon style="opacity:0.2;fill:#FFFFFF;" points="148.285,198.738 145.449,202.557 153.37,205.787 156.955,200.288 
							165.819,199.841 163.565,194.92 160.67,194.405 155.867,198.233 						"/>
					</g>
					<path style="fill:#263238;" d="M153.043,182.247c-0.317-0.077-0.626-0.181-0.925-0.311c-0.099-0.037-0.149-0.146-0.112-0.245
						c0.001-0.002,0.002-0.004,0.002-0.006c0.048-0.096,0.163-0.137,0.262-0.095c1.523,0.674,3.277,0.59,4.727-0.229
						c0.089-0.06,0.21-0.037,0.27,0.052c0.06,0.088,0.037,0.209-0.052,0.268C155.959,182.424,154.454,182.628,153.043,182.247z"/>
					<path style="fill:#263238;" d="M140.744,185.066c0,0,6.39-1.521,0.726-8.57c0,0-0.154-1.089-0.54-4.483
						c0,0,12.728-6.996,8.729-10.604c-3.999-3.608-6.248,2.365-6.248,2.365s-5.594-2.458-5.976,4.365c0,0-5.636,2.412-2.208,7.325
						c0,0-1.618,3.634,2.026,6.174C137.254,181.639,138.026,184.924,140.744,185.066z"/>
					<path style="fill:#7F3E3B;" d="M139.573,185.621c1.189,1.098,2.763,1.686,4.383,1.637c2.15-0.096,2.564-2.162,1.411-3.838
						c-1.034-1.503-3.403-3.274-5.292-2.371C138.186,181.952,138.127,184.248,139.573,185.621z"/>
					<g>
						
							<rect x="72.827" y="217.204" transform="matrix(0.726 -0.6877 0.6877 0.726 -110.4917 166.7844)" style="fill:#407BFF;" width="162.466" height="9.7"/>
						
							<rect x="72.827" y="217.204" transform="matrix(0.726 -0.6877 0.6877 0.726 -110.4917 166.7844)" style="opacity:0.5;" width="162.466" height="9.7"/>
						<g>
							<path style="fill:#407BFF;" d="M165.583,226.952l-57.041,54.029c-3.072,2.91-7.922,2.779-10.832-0.294l-5.25-5.543
								c-2.91-3.072-2.779-7.922,0.294-10.832l57.041-54.029c3.425-3.244,8.831-3.098,12.076,0.327l4.041,4.266
								C169.154,218.301,169.008,223.708,165.583,226.952z"/>
							<path style="opacity:0.5;fill:#FFFFFF;" d="M165.583,226.952l-57.041,54.029c-3.072,2.91-7.922,2.779-10.832-0.294
								l-5.25-5.543c-2.91-3.072-2.779-7.922,0.294-10.832l57.041-54.029c3.425-3.244,8.831-3.098,12.076,0.327l4.041,4.266
								C169.154,218.301,169.008,223.708,165.583,226.952z"/>
						</g>
						<g>
							<path style="fill:#407BFF;" d="M250.159,189.435c-0.56,0-1.119-0.008-1.68-0.023c-15.896-0.438-30.676-7.039-41.615-18.588
								c-22.584-23.844-21.575-61.601,2.25-84.168c11.542-10.933,26.666-16.706,42.551-16.275
								c15.896,0.438,30.676,7.039,41.615,18.588c22.584,23.843,21.575,61.601-2.25,84.168
								C279.896,183.683,265.438,189.435,250.159,189.435z M249.991,80.356c-12.712,0-24.738,4.785-34.001,13.558
								c-19.822,18.775-20.66,50.191-1.867,70.031c9.104,9.611,21.403,15.105,34.63,15.469c13.221,0.358,25.798-4.444,35.399-13.538
								c19.822-18.775,20.659-50.191,1.867-70.031c-9.104-9.611-21.403-15.105-34.63-15.469
								C250.923,80.363,250.456,80.356,249.991,80.356z"/>
						</g>
					</g>
					<g>
						<path style="fill:#7F3E3B;" d="M142.899,237.493l5.031-0.056l3.969-5.242l2.159,0.547c1.453,0.368,2.516,1.606,2.655,3.092
							l0,0c0.112,1.19-0.389,2.356-1.331,3.099l-4.294,3.386c-0.829,0.653-1.907,0.905-2.94,0.687l-0.574-0.121l-5.919-0.262
							L142.899,237.493z"/>
						<path style="fill:#263238;" d="M143.422,208.549c-2.277-2.956-6.671-3.181-9.233-0.462
							c-8.085,8.579-22.89,25.642-19.576,32.33c3.21,6.479,28.82,3.529,28.82,3.529l2.309-8.522c0,0-13.483,1.145-14.98-2.321
							c-1.464-3.389,6.696-11.611,11.939-16.419c2.316-2.124,2.637-5.648,0.723-8.133L143.422,208.549z"/>
					</g>
				</g>
			</g>
			<path style="opacity:0.5;fill:#FFFFFF;" d="M241.801,84.023c-18.425,4.045-38.647,25.28-38.517,48
				c0.836,4.944,1.405,8.042,2.309,11.987c0.265,1.155,1.872,1.243,2.265,0.125c8.844-25.12,24.284-44.244,46.981-58.191
				c1.004-0.617,0.588-2.161-0.59-2.188C250.096,83.659,246.906,83.76,241.801,84.023z"/>
			<g style="opacity:0.5;">
				<g>
					<path style="fill:#FFFFFF;" d="M295.403,116.028c-10.451,24.074-28.486,45.805-49.813,61.019
						c-0.191,0.136-0.426,0.21-0.66,0.214c-2.341,0.033-3.939,0.053-5.731,0.061c-1.05,0.005-1.536-1.29-0.748-1.984
						c20.665-18.202,39.183-40.515,52.612-64.657c0.852-1.532,3.138-1.227,3.563,0.474c0.272,1.086,0.547,2.221,0.883,3.627
						C295.609,115.196,295.573,115.636,295.403,116.028z"/>
				</g>
			</g>
		</g>
		<path style="fill:#7F3E3B;" d="M204.741,187.64l-0.12,0.58l-0.14,3.8l-5.26-1.39l-0.05-2.74l-5.26-3.93l0.53-2.17
			c0.36-1.45,1.59-2.52,3.08-2.67c0.12-0.01,0.23-0.02,0.35-0.02c1.06,0,2.07,0.49,2.75,1.33l3.41,4.28
			C204.691,185.53,204.951,186.61,204.741,187.64z"/>
	</g>
</g>
</svg>
